<svg width="48" height="48" viewBox="0 0 48 48" fill="none" xmlns="http://www.w3.org/2000/svg">
<path fill-rule="evenodd" clip-rule="evenodd" d="M23.2901 4.5268C22.5969 3.82557 21.4731 3.82557 20.7799 4.5268L17.0146 8.33586C16.3215 9.03709 16.3215 10.174 17.0146 10.8752L20.7799 14.6843C21.4731 15.3855 22.5969 15.3855 23.2901 14.6843C23.9833 13.9831 23.9833 12.8462 23.2901 12.1449L22.3792 11.2234H24C31.9529 11.2234 38.4 17.7454 38.4 25.7908C38.4 33.8362 31.9529 40.3582 24 40.3582C16.0471 40.3582 9.6 33.8362 9.6 25.7908C9.6 23.0686 9.96433 21.5065 11.1581 19.4189C11.6559 18.5484 11.3618 17.4345 10.5013 16.9309C9.6408 16.4273 8.53969 16.7248 8.04191 17.5953C6.47891 20.3287 6 22.543 6 25.7908C6 35.8475 14.0589 44.0001 24 44.0001C33.9411 44.0001 42 35.8475 42 25.7908C42 15.7341 33.9411 7.58153 24 7.58153H22.7807L23.2901 7.06617C23.9833 6.36494 23.9833 5.22803 23.2901 4.5268ZM13.6794 4.5268C14.3726 3.82557 15.4964 3.82557 16.1896 4.5268C16.8828 5.22803 16.8828 6.36494 16.1896 7.06617L13.6794 9.60555L16.1896 12.1449C16.8828 12.8462 16.8828 13.9831 16.1896 14.6843C15.4964 15.3855 14.3726 15.3855 13.6794 14.6843L9.91414 10.8752C9.22097 10.174 9.22097 9.03709 9.91414 8.33586L13.6794 4.5268Z" fill="white"/>
<path d="M21.6323 31.6519H19.0653V24.6309C19.0653 24.3362 19.0709 23.9509 19.0823 23.4749C19.1049 22.9989 19.1219 22.5796 19.1333 22.2169C19.0766 22.2849 18.9519 22.4096 18.7593 22.5909C18.5779 22.7609 18.4079 22.9139 18.2493 23.0499L16.8553 24.1719L15.6143 22.6249L19.5243 19.5139H21.6323V31.6519Z" fill="white"/>
<path d="M32.7548 25.5829C32.7548 26.8862 32.6131 28.0026 32.3298 28.9319C32.0578 29.8612 31.6101 30.5753 30.9868 31.0739C30.3748 31.5726 29.5474 31.8219 28.5048 31.8219C27.0428 31.8219 25.9718 31.2722 25.2918 30.1729C24.6118 29.0622 24.2718 27.5322 24.2718 25.5829C24.2718 24.2682 24.4078 23.1462 24.6798 22.2169C24.9518 21.2876 25.3994 20.5736 26.0228 20.0749C26.6461 19.5762 27.4734 19.3269 28.5048 19.3269C29.9554 19.3269 31.0264 19.8766 31.7178 20.9759C32.4091 22.0752 32.7548 23.6109 32.7548 25.5829ZM26.8218 25.5829C26.8218 26.9656 26.9408 28.0082 27.1788 28.7109C27.4168 29.4022 27.8588 29.7479 28.5048 29.7479C29.1394 29.7479 29.5814 29.4022 29.8308 28.7109C30.0801 28.0196 30.2048 26.9769 30.2048 25.5829C30.2048 24.2002 30.0801 23.1576 29.8308 22.4549C29.5814 21.7522 29.1394 21.4009 28.5048 21.4009C27.8588 21.4009 27.4168 21.7522 27.1788 22.4549C26.9408 23.1576 26.8218 24.2002 26.8218 25.5829Z" fill="white"/>
</svg>
