<svg width="48" height="48" viewBox="0 0 48 48" fill="none" xmlns="http://www.w3.org/2000/svg">
<path fill-rule="evenodd" clip-rule="evenodd" d="M34.3206 4.52549C33.6274 3.82426 32.5035 3.82426 31.8104 4.52549C31.1172 5.22672 31.1172 6.36364 31.8104 7.06487L34.3206 9.60425L31.8104 12.1436C31.1172 12.8449 31.1172 13.9818 31.8104 14.683C32.5035 15.3842 33.6274 15.3842 34.3206 14.683L38.0859 10.8739C38.779 10.1727 38.779 9.03579 38.0859 8.33456L34.3206 4.52549ZM24.7099 4.52549C25.4031 3.82426 26.5269 3.82426 27.2201 4.52549L30.9854 8.33456C31.6785 9.03579 31.6785 10.1727 30.9854 10.8739L27.2201 14.683C26.5269 15.3842 25.4031 15.3842 24.7099 14.683C24.0167 13.9818 24.0167 12.8449 24.7099 12.1436L25.6196 11.2234H24C16.0471 11.2234 9.6 17.7454 9.6 25.7908C9.6 33.8362 16.0471 40.3582 24 40.3582C31.9529 40.3582 38.4 33.8362 38.4 25.7908C38.4 23.0686 38.0357 21.5065 36.8419 19.4189C36.3441 18.5484 36.6382 17.4345 37.4987 16.9309C38.3592 16.4273 39.4603 16.7248 39.9581 17.5953C41.5211 20.3287 42 22.543 42 25.7908C42 35.8475 33.9411 44.0001 24 44.0001C14.0589 44.0001 6 35.8475 6 25.7908C6 15.7341 14.0589 7.58152 24 7.58152H25.2206L24.7099 7.06487C24.0167 6.36364 24.0167 5.22672 24.7099 4.52549Z" fill="white"/>
<path d="M21.6323 31.6504H19.0653V24.6294C19.0653 24.3348 19.0709 23.9494 19.0823 23.4734C19.1049 22.9974 19.1219 22.5781 19.1333 22.2154C19.0766 22.2834 18.9519 22.4081 18.7593 22.5894C18.5779 22.7594 18.4079 22.9124 18.2493 23.0484L16.8553 24.1704L15.6143 22.6234L19.5243 19.5124H21.6323V31.6504Z" fill="white"/>
<path d="M32.7548 25.5814C32.7548 26.8848 32.6131 28.0011 32.3298 28.9304C32.0578 29.8598 31.6101 30.5738 30.9868 31.0724C30.3748 31.5711 29.5474 31.8204 28.5048 31.8204C27.0428 31.8204 25.9718 31.2708 25.2918 30.1714C24.6118 29.0608 24.2718 27.5308 24.2718 25.5814C24.2718 24.2668 24.4078 23.1448 24.6798 22.2154C24.9518 21.2861 25.3994 20.5721 26.0228 20.0734C26.6461 19.5748 27.4734 19.3254 28.5048 19.3254C29.9554 19.3254 31.0264 19.8751 31.7178 20.9744C32.4091 22.0738 32.7548 23.6094 32.7548 25.5814ZM26.8218 25.5814C26.8218 26.9641 26.9408 28.0068 27.1788 28.7094C27.4168 29.4008 27.8588 29.7464 28.5048 29.7464C29.1394 29.7464 29.5814 29.4008 29.8308 28.7094C30.0801 28.0181 30.2048 26.9754 30.2048 25.5814C30.2048 24.1988 30.0801 23.1561 29.8308 22.4534C29.5814 21.7508 29.1394 21.3994 28.5048 21.3994C27.8588 21.3994 27.4168 21.7508 27.1788 22.4534C26.9408 23.1561 26.8218 24.1988 26.8218 25.5814Z" fill="white"/>
</svg>
