<svg width="48" height="48" viewBox="0 0 48 48" fill="none" xmlns="http://www.w3.org/2000/svg">
<path fill-rule="evenodd" clip-rule="evenodd" d="M4 11.9971C4 9.78799 5.79086 7.99712 8 7.99712H14C15.1046 7.99712 16 8.89256 16 9.99712C16 11.1017 15.1046 11.9971 14 11.9971H8V17.9991C8 19.1036 7.10457 19.9991 6 19.9991C4.89543 19.9991 4 19.1036 4 17.9991V11.9971ZM32 9.99712C32 8.89256 32.8954 7.99712 34 7.99712H40C42.2091 7.99712 44 9.78799 44 11.9971V17.9991C44 19.1036 43.1046 19.9991 42 19.9991C40.8954 19.9991 40 19.1036 40 17.9991V11.9971H34C32.8954 11.9971 32 11.1017 32 9.99712ZM6 27.9991C7.10457 27.9991 8 28.8945 8 29.9991V35.9976L14.0005 35.9991C15.1051 35.9993 16.0003 36.895 16 37.9996C15.9997 39.1041 15.1041 39.9993 13.9995 39.9991L7.99902 39.9976C5.79027 39.9971 4 38.2064 4 35.9976V29.9991C4 28.8945 4.89543 27.9991 6 27.9991ZM42 27.9991C43.1046 27.9991 44 28.8945 44 29.9991V35.9971C44 38.2063 42.2091 39.9971 40 39.9971H34C32.8954 39.9971 32 39.1017 32 37.9971C32 36.8926 32.8954 35.9971 34 35.9971H40V29.9991C40 28.8945 40.8954 27.9991 42 27.9991Z" fill="white"/>
</svg>
