<svg width="48" height="48" viewBox="0 0 48 48" fill="none" xmlns="http://www.w3.org/2000/svg">
<path fill-rule="evenodd" clip-rule="evenodd" d="M36 20C33.7909 20 32 18.2091 32 16V10C32 8.89543 32.8954 8 34 8C35.1046 8 36 8.89543 36 10V16H42C43.1046 16 44 16.8954 44 18C44 19.1046 43.1046 20 42 20H36Z" fill="white"/>
<path fill-rule="evenodd" clip-rule="evenodd" d="M36 28C33.7909 28 32 29.7909 32 32V38C32 39.1046 32.8954 40 34 40C35.1046 40 36 39.1046 36 38V32H42C43.1046 32 44 31.1046 44 30C44 28.8954 43.1046 28 42 28H36Z" fill="white"/>
<path fill-rule="evenodd" clip-rule="evenodd" d="M12 20C14.2091 20 16 18.2091 16 16V10C16 8.89543 15.1046 8 14 8C12.8954 8 12 8.89543 12 10V16H6C4.89543 16 4 16.8954 4 18C4 19.1046 4.89543 20 6 20H12Z" fill="white"/>
<path fill-rule="evenodd" clip-rule="evenodd" d="M12 28C14.2091 28 16 29.7909 16 32V38C16 39.1046 15.1046 40 14 40C12.8954 40 12 39.1046 12 38V32H6C4.89543 32 4 31.1046 4 30C4 28.8954 4.89543 28 6 28H12Z" fill="white"/>
</svg>
